<svg fill="#000000" width="20px" height="20px" viewBox="0 0 0.9 0.9" version="1.1" preserveAspectRatio="xMidYMid meet" xmlns="http://www.w3.org/2000/svg" xmlns:xlink="http://www.w3.org/1999/xlink"><title>trash-solid</title><path class="clr-i-solid clr-i-solid-path-1" d="M0.15 0.225v0.55a0.073 0.073 0 0 0 0.071 0.075h0.456A0.073 0.073 0 0 0 0.75 0.775V0.225Zm0.225 0.5h-0.05V0.35h0.05Zm0.2 0h-0.05V0.35h0.05Z"/><path class="clr-i-solid clr-i-solid-path-2" d="M0.768 0.125H0.575V0.1a0.05 0.05 0 0 0 -0.05 -0.05h-0.155A0.05 0.05 0 0 0 0.325 0.1v0.025H0.125a0.025 0.025 0 1 0 0 0.05h0.643a0.025 0.025 0 0 0 0 -0.05"/><path x="0" y="0" width="36" height="36" fill-opacity="0" d="M0 0H0.9V0.9H0V0z"/></svg>